<svg width="331" height="345" viewBox="0 0 331 345" fill="none" xmlns="http://www.w3.org/2000/svg">
<path d="M313.996 279.067V63.7853C270.859 32.4783 218.929 15.6191 165.634 15.6191C112.339 15.6191 60.4085 32.4783 17.271 63.7853V63.7853V279.067C60.4129 310.363 112.341 327.216 165.634 327.216C218.926 327.216 270.854 310.363 313.996 279.067V279.067Z" fill="url(#paint0_linear_557_4779)"/>
<path d="M102.437 171.426C132.867 171.426 157.536 146.75 157.536 116.31C157.536 85.8703 132.867 61.1941 102.437 61.1941C72.0067 61.1941 47.3381 85.8703 47.3381 116.31C47.3381 146.75 72.0067 171.426 102.437 171.426Z" fill="url(#paint1_linear_557_4779)"/>
<path d="M313.996 279.018C97.5711 253.664 178.428 182.783 189.927 175.858C181.793 180.701 17.271 279.067 17.271 279.067L36.6379 291.804C75.2953 315.695 119.824 328.381 165.264 328.449C210.704 328.518 255.271 315.966 294 292.192L314.021 279.067L313.996 279.018Z" fill="url(#paint2_linear_557_4779)"/>
<path d="M204.428 166.51C204.428 166.51 218.808 155.104 218.953 147.016C219.195 138.032 202.007 111.467 202.007 111.467C214.112 127.934 221.762 134.472 221.762 134.472C232.97 144.933 256.598 129.629 280.08 114.712C280.08 114.712 252.289 134.448 240.402 149.268C235.343 155.564 240.547 166.873 245.099 174.526C245.099 174.526 235.197 159.536 225.32 159.027C216.387 158.567 204.428 166.51 204.428 166.51Z" fill="#F2F2F2"/>
<defs>
<linearGradient id="paint0_linear_557_4779" x1="192.953" y1="16.5397" x2="138.306" y2="326.307" gradientUnits="userSpaceOnUse">
<stop stop-color="#00156A"/>
<stop offset="0.19" stop-color="#032074"/>
<stop offset="0.72" stop-color="#0B3B8E"/>
</linearGradient>
<linearGradient id="paint1_linear_557_4779" x1="47.3381" y1="116.31" x2="157.536" y2="116.31" gradientUnits="userSpaceOnUse">
<stop stop-color="#F7931E"/>
<stop offset="0.47" stop-color="#F8A439"/>
<stop offset="1" stop-color="#F9B95C"/>
</linearGradient>
<linearGradient id="paint2_linear_557_4779" x1="127.808" y1="344.596" x2="216.428" y2="191.162" gradientUnits="userSpaceOnUse">
<stop stop-color="#8A002D"/>
<stop offset="0.78" stop-color="#D7594F"/>
</linearGradient>
</defs>
</svg>
